M48
; DRILL file {KiCad (5.1.0)-1} date 8/15/2020 5:26:40 PM
; FORMAT={-:-/ absolute / inch / decimal}
; #@! TF.CreationDate,2020-08-15T17:26:40-05:00
; #@! TF.GenerationSoftware,Kicad,Pcbnew,(5.1.0)-1
; #@! TF.FileFunction,Plated,1,2,PTH
FMAT,2
INCH
T1C0.0394
%
G90
G05
T1
X5.9071Y-4.9776
X6.2071Y-4.9776
X6.3071Y-4.2772
X6.4071Y-4.2772
X6.5071Y-4.2772
X6.6071Y-4.2772
X4.5059Y-3.3783
X4.6059Y-3.3783
X4.7059Y-3.3783
X4.8059Y-3.3783
X6.3063Y-2.3772
X6.4063Y-2.3772
X6.5063Y-2.3772
X6.6063Y-2.3772
X6.3067Y-2.9772
X6.4067Y-2.9772
X6.5067Y-2.9772
X6.6067Y-2.9772
X4.5059Y-2.9783
X4.6059Y-2.9783
X4.7059Y-2.9783
X4.8059Y-2.9783
X6.3071Y-3.8772
X6.4071Y-3.8772
X6.5071Y-3.8772
X6.6071Y-3.8772
X5.9071Y-4.5768
X6.2071Y-4.5768
X4.9051Y-2.877
X5.0051Y-2.877
X5.1051Y-2.877
X5.2051Y-2.877
X5.3051Y-2.877
X5.8051Y-2.877
X5.9051Y-2.877
X6.0051Y-2.877
X6.1051Y-2.877
X6.2051Y-2.877
X6.3067Y-2.6772
X6.4067Y-2.6772
X6.5067Y-2.6772
X6.6067Y-2.6772
X5.9071Y-4.8776
X6.2071Y-4.8776
X4.9051Y-3.177
X5.0051Y-3.177
X5.1051Y-3.177
X5.2051Y-3.177
X5.3051Y-3.177
X5.8051Y-3.177
X5.9051Y-3.177
X6.0051Y-3.177
X6.1051Y-3.177
X6.2051Y-3.177
X4.5059Y-4.7783
X4.6059Y-4.7783
X4.7059Y-4.7783
X4.8059Y-4.7783
X4.9051Y-3.777
X5.0051Y-3.777
X5.1051Y-3.777
X5.2051Y-3.777
X5.3051Y-3.777
X5.8051Y-3.777
X5.9051Y-3.777
X6.0051Y-3.777
X6.1051Y-3.777
X6.2051Y-3.777
X5.498Y-2.178
X5.598Y-2.178
X6.3067Y-3.1772
X6.4067Y-3.1772
X6.5067Y-3.1772
X6.6067Y-3.1772
X4.5059Y-4.878
X4.8059Y-4.878
X4.5055Y-2.3783
X4.6055Y-2.3783
X4.7055Y-2.3783
X4.8055Y-2.3783
X4.9051Y-3.977
X5.0051Y-3.977
X5.1051Y-3.977
X5.2051Y-3.977
X5.3051Y-3.977
X5.8051Y-3.977
X5.9051Y-3.977
X6.0051Y-3.977
X6.1051Y-3.977
X6.2051Y-3.977
X5.9071Y-4.6768
X6.2071Y-4.6768
X6.3071Y-4.0772
X6.4071Y-4.0772
X6.5071Y-4.0772
X6.6071Y-4.0772
X4.5059Y-5.0776
X4.8059Y-5.0776
X4.5059Y-2.5783
X4.6059Y-2.5783
X4.7059Y-2.5783
X4.8059Y-2.5783
X4.9051Y-2.277
X5.0051Y-2.277
X5.1051Y-2.277
X5.2051Y-2.277
X5.3051Y-2.277
X5.8051Y-2.277
X5.9051Y-2.277
X6.0051Y-2.277
X6.1051Y-2.277
X6.2051Y-2.277
X6.3071Y-4.8772
X6.6071Y-4.8772
X6.3063Y-2.1772
X6.4063Y-2.1772
X6.5063Y-2.1772
X6.6063Y-2.1772
X4.5059Y-2.6783
X4.6059Y-2.6783
X4.7059Y-2.6783
X4.8059Y-2.6783
X4.5059Y-3.2783
X4.6059Y-3.2783
X4.7059Y-3.2783
X4.8059Y-3.2783
X6.3067Y-3.5772
X6.4067Y-3.5772
X6.5067Y-3.5772
X6.6067Y-3.5772
X4.5059Y-3.5783
X4.6059Y-3.5783
X4.7059Y-3.5783
X4.8059Y-3.5783
X6.3071Y-4.4772
X6.4071Y-4.4772
X6.5071Y-4.4772
X6.6071Y-4.4772
X5.9071Y-4.7768
X6.2071Y-4.7768
X4.9051Y-3.077
X5.0051Y-3.077
X5.1051Y-3.077
X5.2051Y-3.077
X5.3051Y-3.077
X5.8051Y-3.077
X5.9051Y-3.077
X6.0051Y-3.077
X6.1051Y-3.077
X6.2051Y-3.077
X4.9059Y-4.6787
X5.2059Y-4.6787
X6.3071Y-4.1772
X6.4071Y-4.1772
X6.5071Y-4.1772
X6.6071Y-4.1772
X4.5063Y-4.0783
X4.6063Y-4.0783
X4.7063Y-4.0783
X4.8063Y-4.0783
X4.9051Y-3.277
X5.0051Y-3.277
X5.1051Y-3.277
X5.2051Y-3.277
X5.3051Y-3.277
X5.8051Y-3.277
X5.9051Y-3.277
X6.0051Y-3.277
X6.1051Y-3.277
X6.2051Y-3.277
X4.5063Y-4.1783
X4.6063Y-4.1783
X4.7063Y-4.1783
X4.8063Y-4.1783
X4.9051Y-4.177
X5.0051Y-4.177
X5.1051Y-4.177
X5.2051Y-4.177
X5.3051Y-4.177
X5.8051Y-4.177
X5.9051Y-4.177
X6.0051Y-4.177
X6.1051Y-4.177
X6.2051Y-4.177
X6.3067Y-3.3772
X6.4067Y-3.3772
X6.5067Y-3.3772
X6.6067Y-3.3772
X4.5059Y-3.1783
X4.6059Y-3.1783
X4.7059Y-3.1783
X4.8059Y-3.1783
X4.9051Y-4.477
X5.0051Y-4.477
X5.1051Y-4.477
X5.2051Y-4.477
X5.3051Y-4.477
X5.8051Y-4.477
X5.9051Y-4.477
X6.0051Y-4.477
X6.1051Y-4.477
X6.2051Y-4.477
X4.9051Y-2.377
X5.0051Y-2.377
X5.1051Y-2.377
X5.2051Y-2.377
X5.3051Y-2.377
X5.8051Y-2.377
X5.9051Y-2.377
X6.0051Y-2.377
X6.1051Y-2.377
X6.2051Y-2.377
X6.3067Y-2.5772
X6.4067Y-2.5772
X6.5067Y-2.5772
X6.6067Y-2.5772
X4.9059Y-4.878
X5.2059Y-4.878
X4.5063Y-4.4783
X4.6063Y-4.4783
X4.7063Y-4.4783
X4.8063Y-4.4783
X4.9051Y-3.677
X5.0051Y-3.677
X5.1051Y-3.677
X5.2051Y-3.677
X5.3051Y-3.677
X5.8051Y-3.677
X5.9051Y-3.677
X6.0051Y-3.677
X6.1051Y-3.677
X6.2051Y-3.677
X4.9059Y-4.9776
X5.2059Y-4.9776
X6.3071Y-3.9772
X6.4071Y-3.9772
X6.5071Y-3.9772
X6.6071Y-3.9772
X4.5059Y-4.9776
X4.8059Y-4.9776
X4.5059Y-2.8783
X4.6059Y-2.8783
X4.7059Y-2.8783
X4.8059Y-2.8783
X4.9051Y-2.777
X5.0051Y-2.777
X5.1051Y-2.777
X5.2051Y-2.777
X5.3051Y-2.777
X5.8051Y-2.777
X5.9051Y-2.777
X6.0051Y-2.777
X6.1051Y-2.777
X6.2051Y-2.777
X5.9071Y-5.0776
X6.2071Y-5.0776
X6.3063Y-2.2772
X6.4063Y-2.2772
X6.5063Y-2.2772
X6.6063Y-2.2772
X4.9059Y-5.0776
X5.2059Y-5.0776
X4.5059Y-4.6783
X4.6059Y-4.6783
X4.7059Y-4.6783
X4.8059Y-4.6783
X4.9051Y-2.177
X5.0051Y-2.177
X5.1051Y-2.177
X5.2051Y-2.177
X5.3051Y-2.177
X5.8051Y-2.177
X5.9051Y-2.177
X6.0051Y-2.177
X6.1051Y-2.177
X6.2051Y-2.177
X4.2701Y-2.178
X4.2701Y-2.278
X4.2701Y-2.378
X4.2701Y-2.478
X4.2701Y-2.578
X4.2701Y-2.678
X4.2701Y-2.778
X4.2701Y-2.878
X4.2701Y-2.978
X4.2701Y-3.078
X4.2701Y-3.178
X4.2701Y-3.278
X4.2701Y-3.378
X4.2701Y-3.478
X4.2701Y-3.578
X4.2701Y-3.678
X4.2701Y-3.778
X4.2701Y-3.878
X4.2701Y-3.978
X4.2701Y-4.078
X4.2701Y-4.178
X4.2701Y-4.278
X4.2701Y-4.378
X4.2701Y-4.478
X4.2701Y-4.578
X4.2701Y-4.678
X4.2701Y-4.778
X4.2701Y-4.878
X4.2701Y-4.978
X4.2701Y-5.078
X4.3701Y-2.178
X4.3701Y-2.278
X4.3701Y-2.378
X4.3701Y-2.478
X4.3701Y-2.578
X4.3701Y-2.678
X4.3701Y-2.778
X4.3701Y-2.878
X4.3701Y-2.978
X4.3701Y-3.078
X4.3701Y-3.178
X4.3701Y-3.278
X4.3701Y-3.378
X4.3701Y-3.478
X4.3701Y-3.578
X4.3701Y-3.678
X4.3701Y-3.778
X4.3701Y-3.878
X4.3701Y-3.978
X4.3701Y-4.078
X4.3701Y-4.178
X4.3701Y-4.278
X4.3701Y-4.378
X4.3701Y-4.478
X4.3701Y-4.578
X4.3701Y-4.678
X4.3701Y-4.778
X4.3701Y-4.878
X4.3701Y-4.978
X4.3701Y-5.078
X4.9051Y-4.277
X5.0051Y-4.277
X5.1051Y-4.277
X5.2051Y-4.277
X5.3051Y-4.277
X5.8051Y-4.277
X5.9051Y-4.277
X6.0051Y-4.277
X6.1051Y-4.277
X6.2051Y-4.277
X6.3067Y-4.5772
X6.4067Y-4.5772
X6.5067Y-4.5772
X6.6067Y-4.5772
X6.3067Y-3.0772
X6.4067Y-3.0772
X6.5067Y-3.0772
X6.6067Y-3.0772
X4.5063Y-3.7783
X4.6063Y-3.7783
X4.7063Y-3.7783
X4.8063Y-3.7783
X6.3067Y-4.6772
X6.4067Y-4.6772
X6.5067Y-4.6772
X6.6067Y-4.6772
X4.5063Y-3.9783
X4.6063Y-3.9783
X4.7063Y-3.9783
X4.8063Y-3.9783
X4.9051Y-4.377
X5.0051Y-4.377
X5.1051Y-4.377
X5.2051Y-4.377
X5.3051Y-4.377
X5.8051Y-4.377
X5.9051Y-4.377
X6.0051Y-4.377
X6.1051Y-4.377
X6.2051Y-4.377
X4.5059Y-3.0783
X4.6059Y-3.0783
X4.7059Y-3.0783
X4.8059Y-3.0783
X6.3071Y-4.3772
X6.4071Y-4.3772
X6.5071Y-4.3772
X6.6071Y-4.3772
X4.5059Y-3.6783
X4.6059Y-3.6783
X4.7059Y-3.6783
X4.8059Y-3.6783
X6.3063Y-2.4772
X6.4063Y-2.4772
X6.5063Y-2.4772
X6.6063Y-2.4772
X5.4559Y-4.8768
X5.5059Y-4.7768
X5.5559Y-4.8768
X5.6059Y-4.7768
X5.6559Y-4.8768
X6.3067Y-3.6772
X6.4067Y-3.6772
X6.5067Y-3.6772
X6.6067Y-3.6772
X4.5063Y-3.8783
X4.6063Y-3.8783
X4.7063Y-3.8783
X4.8063Y-3.8783
X4.9051Y-3.377
X5.0051Y-3.377
X5.1051Y-3.377
X5.2051Y-3.377
X5.3051Y-3.377
X5.8051Y-3.377
X5.9051Y-3.377
X6.0051Y-3.377
X6.1051Y-3.377
X6.2051Y-3.377
X4.9051Y-2.677
X5.0051Y-2.677
X5.1051Y-2.677
X5.2051Y-2.677
X5.3051Y-2.677
X5.8051Y-2.677
X5.9051Y-2.677
X6.0051Y-2.677
X6.1051Y-2.677
X6.2051Y-2.677
X6.3067Y-2.7772
X6.4067Y-2.7772
X6.5067Y-2.7772
X6.6067Y-2.7772
X4.5063Y-4.2783
X4.6063Y-4.2783
X4.7063Y-4.2783
X4.8063Y-4.2783
X4.9051Y-3.477
X5.0051Y-3.477
X5.1051Y-3.477
X5.2051Y-3.477
X5.3051Y-3.477
X5.8051Y-3.477
X5.9051Y-3.477
X6.0051Y-3.477
X6.1051Y-3.477
X6.2051Y-3.477
X6.3071Y-4.9772
X6.6071Y-4.9772
X4.9051Y-4.077
X5.0051Y-4.077
X5.1051Y-4.077
X5.2051Y-4.077
X5.3051Y-4.077
X5.8051Y-4.077
X5.9051Y-4.077
X6.0051Y-4.077
X6.1051Y-4.077
X6.2051Y-4.077
X4.5059Y-4.5783
X4.6059Y-4.5783
X4.7059Y-4.5783
X4.8059Y-4.5783
X6.3067Y-3.2772
X6.4067Y-3.2772
X6.5067Y-3.2772
X6.6067Y-3.2772
X6.3067Y-3.4772
X6.4067Y-3.4772
X6.5067Y-3.4772
X6.6067Y-3.4772
X4.5059Y-2.7783
X4.6059Y-2.7783
X4.7059Y-2.7783
X4.8059Y-2.7783
X4.9051Y-3.877
X5.0051Y-3.877
X5.1051Y-3.877
X5.2051Y-3.877
X5.3051Y-3.877
X5.8051Y-3.877
X5.9051Y-3.877
X6.0051Y-3.877
X6.1051Y-3.877
X6.2051Y-3.877
X6.3071Y-5.0772
X6.6071Y-5.0772
X6.3067Y-2.8772
X6.4067Y-2.8772
X6.5067Y-2.8772
X6.6067Y-2.8772
X4.5055Y-2.4783
X4.6055Y-2.4783
X4.7055Y-2.4783
X4.8055Y-2.4783
X4.9051Y-2.477
X5.0051Y-2.477
X5.1051Y-2.477
X5.2051Y-2.477
X5.3051Y-2.477
X5.8051Y-2.477
X5.9051Y-2.477
X6.0051Y-2.477
X6.1051Y-2.477
X6.2051Y-2.477
X6.7417Y-2.178
X6.7417Y-2.278
X6.7417Y-2.378
X6.7417Y-2.478
X6.7417Y-2.578
X6.7417Y-2.678
X6.7417Y-2.778
X6.7417Y-2.878
X6.7417Y-2.978
X6.7417Y-3.078
X6.7417Y-3.178
X6.7417Y-3.278
X6.7417Y-3.378
X6.7417Y-3.478
X6.7417Y-3.578
X6.7417Y-3.678
X6.7417Y-3.778
X6.7417Y-3.878
X6.7417Y-3.978
X6.7417Y-4.078
X6.7417Y-4.178
X6.7417Y-4.278
X6.7417Y-4.378
X6.7417Y-4.478
X6.7417Y-4.578
X6.7417Y-4.678
X6.7417Y-4.778
X6.7417Y-4.878
X6.7417Y-4.978
X6.7417Y-5.078
X6.8417Y-2.178
X6.8417Y-2.278
X6.8417Y-2.378
X6.8417Y-2.478
X6.8417Y-2.578
X6.8417Y-2.678
X6.8417Y-2.778
X6.8417Y-2.878
X6.8417Y-2.978
X6.8417Y-3.078
X6.8417Y-3.178
X6.8417Y-3.278
X6.8417Y-3.378
X6.8417Y-3.478
X6.8417Y-3.578
X6.8417Y-3.678
X6.8417Y-3.778
X6.8417Y-3.878
X6.8417Y-3.978
X6.8417Y-4.078
X6.8417Y-4.178
X6.8417Y-4.278
X6.8417Y-4.378
X6.8417Y-4.478
X6.8417Y-4.578
X6.8417Y-4.678
X6.8417Y-4.778
X6.8417Y-4.878
X6.8417Y-4.978
X6.8417Y-5.078
X6.3071Y-3.7772
X6.4071Y-3.7772
X6.5071Y-3.7772
X6.6071Y-3.7772
X4.5055Y-2.1783
X4.6055Y-2.1783
X4.7055Y-2.1783
X4.8055Y-2.1783
X4.5063Y-4.3783
X4.6063Y-4.3783
X4.7063Y-4.3783
X4.8063Y-4.3783
X4.9051Y-2.977
X5.0051Y-2.977
X5.1051Y-2.977
X5.2051Y-2.977
X5.3051Y-2.977
X5.8051Y-2.977
X5.9051Y-2.977
X6.0051Y-2.977
X6.1051Y-2.977
X6.2051Y-2.977
X4.5059Y-3.4783
X4.6059Y-3.4783
X4.7059Y-3.4783
X4.8059Y-3.4783
X4.5055Y-2.2783
X4.6055Y-2.2783
X4.7055Y-2.2783
X4.8055Y-2.2783
X4.9051Y-2.577
X5.0051Y-2.577
X5.1051Y-2.577
X5.2051Y-2.577
X5.3051Y-2.577
X5.8051Y-2.577
X5.9051Y-2.577
X6.0051Y-2.577
X6.1051Y-2.577
X6.2051Y-2.577
X4.9059Y-4.5787
X5.2059Y-4.5787
X6.3067Y-4.7772
X6.4067Y-4.7772
X6.5067Y-4.7772
X6.6067Y-4.7772
X4.9059Y-4.7787
X5.2059Y-4.7787
X4.9051Y-3.577
X5.0051Y-3.577
X5.1051Y-3.577
X5.2051Y-3.577
X5.3051Y-3.577
X5.8051Y-3.577
X5.9051Y-3.577
X6.0051Y-3.577
X6.1051Y-3.577
X6.2051Y-3.577
T0
M30
