M48
INCH,TZ
T1C0.0394
%
G90
G05
T1
X59071Y-49776
X62071Y-49776
X63071Y-42772
X64071Y-42772
X65071Y-42772
X66071Y-42772
X45059Y-33783
X46059Y-33783
X47059Y-33783
X48059Y-33783
X63063Y-23772
X64063Y-23772
X65063Y-23772
X66063Y-23772
X63067Y-29772
X64067Y-29772
X65067Y-29772
X66067Y-29772
X45059Y-29783
X46059Y-29783
X47059Y-29783
X48059Y-29783
X63071Y-38772
X64071Y-38772
X65071Y-38772
X66071Y-38772
X59071Y-45768
X62071Y-45768
X49051Y-28770
X50051Y-28770
X51051Y-28770
X52051Y-28770
X53051Y-28770
X58051Y-28770
X59051Y-28770
X60051Y-28770
X61051Y-28770
X62051Y-28770
X63067Y-26772
X64067Y-26772
X65067Y-26772
X66067Y-26772
X59071Y-48776
X62071Y-48776
X49051Y-31770
X50051Y-31770
X51051Y-31770
X52051Y-31770
X53051Y-31770
X58051Y-31770
X59051Y-31770
X60051Y-31770
X61051Y-31770
X62051Y-31770
X45059Y-47783
X46059Y-47783
X47059Y-47783
X48059Y-47783
X49051Y-37770
X50051Y-37770
X51051Y-37770
X52051Y-37770
X53051Y-37770
X58051Y-37770
X59051Y-37770
X60051Y-37770
X61051Y-37770
X62051Y-37770
X54980Y-21780
X55980Y-21780
X63067Y-31772
X64067Y-31772
X65067Y-31772
X66067Y-31772
X45059Y-48780
X48059Y-48780
X45055Y-23783
X46055Y-23783
X47055Y-23783
X48055Y-23783
X49051Y-39770
X50051Y-39770
X51051Y-39770
X52051Y-39770
X53051Y-39770
X58051Y-39770
X59051Y-39770
X60051Y-39770
X61051Y-39770
X62051Y-39770
X59071Y-46768
X62071Y-46768
X63071Y-40772
X64071Y-40772
X65071Y-40772
X66071Y-40772
X45059Y-50776
X48059Y-50776
X45059Y-25783
X46059Y-25783
X47059Y-25783
X48059Y-25783
X49051Y-22770
X50051Y-22770
X51051Y-22770
X52051Y-22770
X53051Y-22770
X58051Y-22770
X59051Y-22770
X60051Y-22770
X61051Y-22770
X62051Y-22770
X63071Y-48772
X66071Y-48772
X63063Y-21772
X64063Y-21772
X65063Y-21772
X66063Y-21772
X45059Y-26783
X46059Y-26783
X47059Y-26783
X48059Y-26783
X45059Y-32783
X46059Y-32783
X47059Y-32783
X48059Y-32783
X63067Y-35772
X64067Y-35772
X65067Y-35772
X66067Y-35772
X45059Y-35783
X46059Y-35783
X47059Y-35783
X48059Y-35783
X63071Y-44772
X64071Y-44772
X65071Y-44772
X66071Y-44772
X59071Y-47768
X62071Y-47768
X49051Y-30770
X50051Y-30770
X51051Y-30770
X52051Y-30770
X53051Y-30770
X58051Y-30770
X59051Y-30770
X60051Y-30770
X61051Y-30770
X62051Y-30770
X49059Y-46787
X52059Y-46787
X63071Y-41772
X64071Y-41772
X65071Y-41772
X66071Y-41772
X45063Y-40783
X46063Y-40783
X47063Y-40783
X48063Y-40783
X49051Y-32770
X50051Y-32770
X51051Y-32770
X52051Y-32770
X53051Y-32770
X58051Y-32770
X59051Y-32770
X60051Y-32770
X61051Y-32770
X62051Y-32770
X45063Y-41783
X46063Y-41783
X47063Y-41783
X48063Y-41783
X49051Y-41770
X50051Y-41770
X51051Y-41770
X52051Y-41770
X53051Y-41770
X58051Y-41770
X59051Y-41770
X60051Y-41770
X61051Y-41770
X62051Y-41770
X63067Y-33772
X64067Y-33772
X65067Y-33772
X66067Y-33772
X45059Y-31783
X46059Y-31783
X47059Y-31783
X48059Y-31783
X49051Y-44770
X50051Y-44770
X51051Y-44770
X52051Y-44770
X53051Y-44770
X58051Y-44770
X59051Y-44770
X60051Y-44770
X61051Y-44770
X62051Y-44770
X49051Y-23770
X50051Y-23770
X51051Y-23770
X52051Y-23770
X53051Y-23770
X58051Y-23770
X59051Y-23770
X60051Y-23770
X61051Y-23770
X62051Y-23770
X63067Y-25772
X64067Y-25772
X65067Y-25772
X66067Y-25772
X49059Y-48780
X52059Y-48780
X45063Y-44783
X46063Y-44783
X47063Y-44783
X48063Y-44783
X49051Y-36770
X50051Y-36770
X51051Y-36770
X52051Y-36770
X53051Y-36770
X58051Y-36770
X59051Y-36770
X60051Y-36770
X61051Y-36770
X62051Y-36770
X49059Y-49776
X52059Y-49776
X63071Y-39772
X64071Y-39772
X65071Y-39772
X66071Y-39772
X45059Y-49776
X48059Y-49776
X45059Y-28783
X46059Y-28783
X47059Y-28783
X48059Y-28783
X49051Y-27770
X50051Y-27770
X51051Y-27770
X52051Y-27770
X53051Y-27770
X58051Y-27770
X59051Y-27770
X60051Y-27770
X61051Y-27770
X62051Y-27770
X59071Y-50776
X62071Y-50776
X63063Y-22772
X64063Y-22772
X65063Y-22772
X66063Y-22772
X49059Y-50776
X52059Y-50776
X45059Y-46783
X46059Y-46783
X47059Y-46783
X48059Y-46783
X49051Y-21770
X50051Y-21770
X51051Y-21770
X52051Y-21770
X53051Y-21770
X58051Y-21770
X59051Y-21770
X60051Y-21770
X61051Y-21770
X62051Y-21770
X42701Y-21780
X42701Y-22780
X42701Y-23780
X42701Y-24780
X42701Y-25780
X42701Y-26780
X42701Y-27780
X42701Y-28780
X42701Y-29780
X42701Y-30780
X42701Y-31780
X42701Y-32780
X42701Y-33780
X42701Y-34780
X42701Y-35780
X42701Y-36780
X42701Y-37780
X42701Y-38780
X42701Y-39780
X42701Y-40780
X42701Y-41780
X42701Y-42780
X42701Y-43780
X42701Y-44780
X42701Y-45780
X42701Y-46780
X42701Y-47780
X42701Y-48780
X42701Y-49780
X42701Y-50780
X43701Y-21780
X43701Y-22780
X43701Y-23780
X43701Y-24780
X43701Y-25780
X43701Y-26780
X43701Y-27780
X43701Y-28780
X43701Y-29780
X43701Y-30780
X43701Y-31780
X43701Y-32780
X43701Y-33780
X43701Y-34780
X43701Y-35780
X43701Y-36780
X43701Y-37780
X43701Y-38780
X43701Y-39780
X43701Y-40780
X43701Y-41780
X43701Y-42780
X43701Y-43780
X43701Y-44780
X43701Y-45780
X43701Y-46780
X43701Y-47780
X43701Y-48780
X43701Y-49780
X43701Y-50780
X49051Y-42770
X50051Y-42770
X51051Y-42770
X52051Y-42770
X53051Y-42770
X58051Y-42770
X59051Y-42770
X60051Y-42770
X61051Y-42770
X62051Y-42770
X63067Y-45772
X64067Y-45772
X65067Y-45772
X66067Y-45772
X63067Y-30772
X64067Y-30772
X65067Y-30772
X66067Y-30772
X45063Y-37783
X46063Y-37783
X47063Y-37783
X48063Y-37783
X63067Y-46772
X64067Y-46772
X65067Y-46772
X66067Y-46772
X45063Y-39783
X46063Y-39783
X47063Y-39783
X48063Y-39783
X49051Y-43770
X50051Y-43770
X51051Y-43770
X52051Y-43770
X53051Y-43770
X58051Y-43770
X59051Y-43770
X60051Y-43770
X61051Y-43770
X62051Y-43770
X45059Y-30783
X46059Y-30783
X47059Y-30783
X48059Y-30783
X63071Y-43772
X64071Y-43772
X65071Y-43772
X66071Y-43772
X45059Y-36783
X46059Y-36783
X47059Y-36783
X48059Y-36783
X63063Y-24772
X64063Y-24772
X65063Y-24772
X66063Y-24772
X54559Y-48768
X55059Y-47768
X55559Y-48768
X56059Y-47768
X56559Y-48768
X63067Y-36772
X64067Y-36772
X65067Y-36772
X66067Y-36772
X45063Y-38783
X46063Y-38783
X47063Y-38783
X48063Y-38783
X49051Y-33770
X50051Y-33770
X51051Y-33770
X52051Y-33770
X53051Y-33770
X58051Y-33770
X59051Y-33770
X60051Y-33770
X61051Y-33770
X62051Y-33770
X49051Y-26770
X50051Y-26770
X51051Y-26770
X52051Y-26770
X53051Y-26770
X58051Y-26770
X59051Y-26770
X60051Y-26770
X61051Y-26770
X62051Y-26770
X63067Y-27772
X64067Y-27772
X65067Y-27772
X66067Y-27772
X45063Y-42783
X46063Y-42783
X47063Y-42783
X48063Y-42783
X49051Y-34770
X50051Y-34770
X51051Y-34770
X52051Y-34770
X53051Y-34770
X58051Y-34770
X59051Y-34770
X60051Y-34770
X61051Y-34770
X62051Y-34770
X63071Y-49772
X66071Y-49772
X49051Y-40770
X50051Y-40770
X51051Y-40770
X52051Y-40770
X53051Y-40770
X58051Y-40770
X59051Y-40770
X60051Y-40770
X61051Y-40770
X62051Y-40770
X45059Y-45783
X46059Y-45783
X47059Y-45783
X48059Y-45783
X63067Y-32772
X64067Y-32772
X65067Y-32772
X66067Y-32772
X63067Y-34772
X64067Y-34772
X65067Y-34772
X66067Y-34772
X45059Y-27783
X46059Y-27783
X47059Y-27783
X48059Y-27783
X49051Y-38770
X50051Y-38770
X51051Y-38770
X52051Y-38770
X53051Y-38770
X58051Y-38770
X59051Y-38770
X60051Y-38770
X61051Y-38770
X62051Y-38770
X63071Y-50772
X66071Y-50772
X63067Y-28772
X64067Y-28772
X65067Y-28772
X66067Y-28772
X45055Y-24783
X46055Y-24783
X47055Y-24783
X48055Y-24783
X49051Y-24770
X50051Y-24770
X51051Y-24770
X52051Y-24770
X53051Y-24770
X58051Y-24770
X59051Y-24770
X60051Y-24770
X61051Y-24770
X62051Y-24770
X67417Y-21780
X67417Y-22780
X67417Y-23780
X67417Y-24780
X67417Y-25780
X67417Y-26780
X67417Y-27780
X67417Y-28780
X67417Y-29780
X67417Y-30780
X67417Y-31780
X67417Y-32780
X67417Y-33780
X67417Y-34780
X67417Y-35780
X67417Y-36780
X67417Y-37780
X67417Y-38780
X67417Y-39780
X67417Y-40780
X67417Y-41780
X67417Y-42780
X67417Y-43780
X67417Y-44780
X67417Y-45780
X67417Y-46780
X67417Y-47780
X67417Y-48780
X67417Y-49780
X67417Y-50780
X68417Y-21780
X68417Y-22780
X68417Y-23780
X68417Y-24780
X68417Y-25780
X68417Y-26780
X68417Y-27780
X68417Y-28780
X68417Y-29780
X68417Y-30780
X68417Y-31780
X68417Y-32780
X68417Y-33780
X68417Y-34780
X68417Y-35780
X68417Y-36780
X68417Y-37780
X68417Y-38780
X68417Y-39780
X68417Y-40780
X68417Y-41780
X68417Y-42780
X68417Y-43780
X68417Y-44780
X68417Y-45780
X68417Y-46780
X68417Y-47780
X68417Y-48780
X68417Y-49780
X68417Y-50780
X63071Y-37772
X64071Y-37772
X65071Y-37772
X66071Y-37772
X45055Y-21783
X46055Y-21783
X47055Y-21783
X48055Y-21783
X45063Y-43783
X46063Y-43783
X47063Y-43783
X48063Y-43783
X49051Y-29770
X50051Y-29770
X51051Y-29770
X52051Y-29770
X53051Y-29770
X58051Y-29770
X59051Y-29770
X60051Y-29770
X61051Y-29770
X62051Y-29770
X45059Y-34783
X46059Y-34783
X47059Y-34783
X48059Y-34783
X45055Y-22783
X46055Y-22783
X47055Y-22783
X48055Y-22783
X49051Y-25770
X50051Y-25770
X51051Y-25770
X52051Y-25770
X53051Y-25770
X58051Y-25770
X59051Y-25770
X60051Y-25770
X61051Y-25770
X62051Y-25770
X49059Y-45787
X52059Y-45787
X63067Y-47772
X64067Y-47772
X65067Y-47772
X66067Y-47772
X49059Y-47787
X52059Y-47787
X49051Y-35770
X50051Y-35770
X51051Y-35770
X52051Y-35770
X53051Y-35770
X58051Y-35770
X59051Y-35770
X60051Y-35770
X61051Y-35770
X62051Y-35770
T0
M30
